PathFileType	4	(X/Y/Z)	/Users/itak/Documents/Research/Walk-IL/dataset/trc/00082_00006.trc
DataRate	CameraRate	NumFrames	NumMarkers	Units	OrigDataRate	OrigDataStartFrame	OrigNumFrames
100.000000	100.000000	4	53	mm	100.000000	437	500
Frame#	Time	RPSI			LPSI			L3			STRN			T10			C7			CLAV			RBAK			LBAK			LSHO			LUPA			LAEL			LAOL			LWTS			LWPS			LFRA			LIFD			LHPS			LHTS			RSHO			RUPA			RAEL			RAOL			RWTS			RWPS			RFRA			RIFD			RHTS			RHPS			RBHD			LFHD			RFHD			LBHD			LHIP			RHIP			RASI			LASI			LKNE			LTHI			LANK			LTIP			LTOE			LMT1			LMT5			LHEE			RKNE			RTHI			RANK			RTIP			RTOE			RMT1			RMT5			RHEE			
		X1	Y1	Z1	X2	Y2	Z2	X3	Y3	Z3	X4	Y4	Z4	X5	Y5	Z5	X6	Y6	Z6	X7	Y7	Z7	X8	Y8	Z8	X9	Y9	Z9	X10	Y10	Z10	X11	Y11	Z11	X12	Y12	Z12	X13	Y13	Z13	X14	Y14	Z14	X15	Y15	Z15	X16	Y16	Z16	X17	Y17	Z17	X18	Y18	Z18	X19	Y19	Z19	X20	Y20	Z20	X21	Y21	Z21	X22	Y22	Z22	X23	Y23	Z23	X24	Y24	Z24	X25	Y25	Z25	X26	Y26	Z26	X27	Y27	Z27	X28	Y28	Z28	X29	Y29	Z29	X30	Y30	Z30	X31	Y31	Z31	X32	Y32	Z32	X33	Y33	Z33	X34	Y34	Z34	X35	Y35	Z35	X36	Y36	Z36	X37	Y37	Z37	X38	Y38	Z38	X39	Y39	Z39	X40	Y40	Z40	X41	Y41	Z41	X42	Y42	Z42	X43	Y43	Z43	X44	Y44	Z44	X45	Y45	Z45	X46	Y46	Z46	X47	Y47	Z47	X48	Y48	Z48	X49	Y49	Z49	X50	Y50	Z50	X51	Y51	Z51	X52	Y52	Z52	X53	Y53	Z53	

438	4.37	628.2655639648438	1021.878662109375	-506.9036865234375	452.9244689941406	1010.866455078125	-497.3816833496094	534.3572998046875	1075.279907226562	-503.568603515625	542.1119384765625	1281.427612304688	-752.5437622070312	526.4818115234375	1209.338500976562	-484.2760925292969	525.2239379882812	1477.670288085938	-538.4598999023438	539.081298828125	1395.37353515625	-719.819580078125	598.5289306640625	1337.856079101562	-473.1129150390625	423.8463439941406	1440.09619140625	-522.3897705078125	357.8008728027344	1446.91357421875	-630.1300659179688	277.6795349121094	1320.839599609375	-620.736572265625	254.3592834472656	1107.908081054688	-644.71826171875	337.8596801757812	1090.11865234375	-576.5585327148438	324.6220703125	875.79248046875	-747.877685546875	262.8288269042969	859.2281494140625	-692.2237548828125	247.5316925048828	999.4889526367188	-671.4346923828125	349.932373046875	692.5484619140625	-769.432861328125	268.8027038574219	781.6766967773438	-729.7259521484375	322.4822082519531	794.46240234375	-775.7567749023438	704.0201416015625	1445.019775390625	-591.6744384765625	766.3933715820312	1378.424560546875	-576.883544921875	813.7965698242188	1118.15625	-545.26904296875	722.05322265625	1092.12109375	-572.2296142578125	790.7702026367188	887.6651000976562	-724.5365600585938	836.1339721679688	861.6856689453125	-655.7108154296875	826.6774291992188	1036.739135742188	-565.4685668945312	nan	nan	nan	796.6701049804688	802.9580078125	-770.9215087890625	840.7056884765625	780.2680053710938	-707.6703491210938	477.6960144042969	1659.253784179688	-571.2640380859375	605.4884643554688	1696.575073242188	-741.236083984375	479.0850830078125	1704.820190429688	-744.2217407226562	614.1402587890625	1643.926635742188	-577.9676513671875	359.3835754394531	955.8673095703125	-605.1669921875	704.4577026367188	951.0167236328125	-576.5756225585938	685.2946166992188	973.1548461914062	-700.25439453125	416.4956665039062	969.3909912109375	-714.643310546875	410.8269653320312	501.2213134765625	-743.717529296875	372.4061279296875	636.9379272460938	-694.39013671875	376.9551086425781	47.98292541503906	-601.4973754882812	377.763427734375	261.4774780273438	-667.3010864257812	372.6102294921875	39.3453369140625	-806.58740234375	429.2008972167969	38.25247955322266	-759.4796142578125	333.1306762695312	39.15015411376953	-701.2944946289062	454.1707763671875	45.73833847045898	-550.792724609375	672.7337036132812	509.834716796875	-676.5316772460938	706.4269409179688	780.1220703125	-669.1594848632812	659.6760864257812	36.85002517700195	-565.4853515625	675.5506591796875	385.7239074707031	-655.7651977539062	626.5711059570312	32.87876510620117	-785.3379516601562	587.0264282226562	38.68941116333008	-724.1527099609375	678.747314453125	40.96283721923828	-689.4818725585938	602.1240844726562	38.49861145019531	-522.0904541015625	
439	4.38	627.6820068359375	1021.881713867188	-508.9418640136719	452.2743835449219	1010.842041015625	-499.4927062988281	533.7439575195312	1075.133544921875	-505.6499938964844	541.3214111328125	1281.46728515625	-754.3533935546875	525.9465942382812	1209.221313476562	-486.1391906738281	524.8076782226562	1477.61865234375	-540.1161499023438	538.4035034179688	1395.399536132812	-721.5498046875	598.0690307617188	1337.72412109375	-474.8620910644531	423.3788452148438	1440.067016601562	-523.968505859375	357.2279663085938	1447.0126953125	-631.6396484375	277.0872192382812	1320.866577148438	-622.216796875	254.0218048095703	1107.83349609375	-646.157958984375	337.6231689453125	1090.183349609375	-578.0520629882812	324.3525390625	875.6002807617188	-749.0227661132812	262.7028503417969	859.0653686523438	-693.33251953125	247.2685394287109	999.41064453125	-672.7491455078125	349.7182312011719	692.29248046875	-770.3054809570312	268.5243530273438	781.507080078125	-730.7103881835938	322.2289428710938	794.2191162109375	-776.7775268554688	703.5181884765625	1444.784423828125	-593.53515625	765.7769165039062	1378.052490234375	-578.8064575195312	812.7437744140625	1117.6943359375	-547.4139404296875	720.9539794921875	1091.795776367188	-574.3108520507812	789.0499267578125	887.2760009765625	-726.7704467773438	834.5527954101562	861.2435302734375	-658.0033569335938	825.4960327148438	1036.279052734375	-567.7007446289062	nan	nan	nan	794.6576538085938	802.4856567382812	-773.0780029296875	838.84375	779.8043212890625	-709.9896240234375	477.3426513671875	1659.232299804688	-572.8216552734375	605.1607055664062	1696.548583984375	-742.8143310546875	478.7781982421875	1704.987182617188	-745.7323608398438	613.8368530273438	1643.738159179688	-579.6122436523438	358.8771362304688	955.7058715820312	-607.2908935546875	703.8607788085938	951.1216430664062	-578.6890869140625	684.68603515625	973.2388305664062	-702.4215698242188	415.8329467773438	969.2725830078125	-716.8038940429688	409.9205322265625	500.84912109375	-743.8074951171875	371.9841613769531	636.762451171875	-695.2553100585938	376.7796020507812	47.70470809936523	-601.2180786132812	377.2632446289062	261.2548217773438	-667.0140991210938	372.3917541503906	39.18173980712891	-806.4363403320312	428.9648132324219	38.2457389831543	-759.2749633789062	332.9132995605469	38.64748001098633	-701.1228637695312	454.0120544433594	45.59634780883789	-550.4365844726562	672.3019409179688	509.7514038085938	-677.2931518554688	705.9886474609375	780.0216674804688	-670.7286376953125	659.59423828125	36.8996696472168	-565.4790649414062	675.181640625	385.8518981933594	-656.1884155273438	626.5643920898438	32.90857315063477	-785.318115234375	586.981689453125	38.69925689697266	-724.1480102539062	678.7040405273438	40.98786926269531	-689.49169921875	602.0635986328125	38.55391693115234	-522.0797729492188	
440	4.39	627.0077514648438	1021.89892578125	-510.9180603027344	451.5433959960938	1010.832824707031	-501.593017578125	533.0202026367188	1074.989013671875	-507.6997680664062	540.5087280273438	1281.525756835938	-756.1102294921875	525.3467407226562	1209.101318359375	-487.947265625	524.3410034179688	1477.572509765625	-541.7136840820312	537.7015380859375	1395.440673828125	-723.2235107421875	597.5208129882812	1337.581176757812	-476.5645751953125	422.8564147949219	1440.048583984375	-525.51513671875	356.6186828613281	1447.143676757812	-633.1162719726562	276.4313049316406	1320.941772460938	-623.671630859375	253.6062927246094	1107.799682617188	-647.5809936523438	337.2941589355469	1090.28955078125	-579.5184936523438	324.0349426269531	875.4612426757812	-750.1543579101562	262.5115051269531	858.9521484375	-694.4403076171875	246.93359375	999.377685546875	-674.0556030273438	349.4557189941406	692.0897216796875	-771.1767578125	268.1931457519531	781.397216796875	-731.696044921875	321.9474792480469	794.0311889648438	-777.7991943359375	702.9803466796875	1444.5517578125	-595.3179321289062	765.101318359375	1377.658447265625	-580.6426391601562	811.6394653320312	1117.236572265625	-549.4819946289062	719.81884765625	1091.458251953125	-576.33251953125	787.3145751953125	886.85302734375	-728.876708984375	832.9403686523438	860.7858276367188	-660.1439819335938	824.2667236328125	1035.823608398438	-569.8404541015625	nan	nan	nan	792.6304321289062	801.9221801757812	-775.0425415039062	836.9674682617188	779.3012084960938	-712.1259155273438	476.9621887207031	1659.215454101562	-574.3248901367188	604.8038940429688	1696.519287109375	-744.3145751953125	478.4586486816406	1705.163330078125	-747.1895141601562	613.5152587890625	1643.559326171875	-581.1948852539062	358.3274536132812	955.53369140625	-609.4287109375	703.2088012695312	951.2423095703125	-580.7286987304688	684.0784301757812	973.3325805664062	-704.5308227539062	415.1653747558594	969.1620483398438	-718.96875	409.0636291503906	500.4175720214844	-743.4042358398438	371.5491027832031	636.5247802734375	-695.7343139648438	376.7113647460938	47.42990875244141	-600.7842407226562	376.878662109375	260.9327392578125	-666.4572143554688	372.3187255859375	39.17451477050781	-806.1168212890625	428.8696899414062	38.23936462402344	-758.9007568359375	332.8504638671875	38.27872848510742	-700.7908325195312	453.999267578125	45.31741714477539	-549.9488525390625	671.8313598632812	509.6957702636719	-677.9739990234375	705.5250244140625	779.9388427734375	-672.2083740234375	659.5071411132812	36.96308517456055	-565.4775390625	674.7643432617188	385.9737548828125	-656.5418090820312	626.5601196289062	32.94342422485352	-785.2967529296875	586.9216918945312	38.70853805541992	-724.1441650390625	678.6385498046875	41.01731109619141	-689.50732421875	602.0086059570312	38.60861206054688	-522.0658569335938	
441	4.4	626.2579956054688	1021.915954589844	-512.84423828125	450.7421264648438	1010.850158691406	-503.6780700683594	532.208740234375	1074.8544921875	-509.7203063964844	539.6813354492188	1281.605712890625	-757.8120727539062	524.6763916015625	1208.981201171875	-489.7044067382812	523.8239135742188	1477.532348632812	-543.2508544921875	536.9794311523438	1395.498046875	-724.8387451171875	596.8890991210938	1337.428588867188	-478.2208557128906	422.2929992675781	1440.042114257812	-527.02734375	355.9778137207031	1447.301391601562	-634.5588989257812	275.719482421875	1321.066772460938	-625.1026611328125	253.1208038330078	1107.809936523438	-648.995849609375	336.8820190429688	1090.438232421875	-580.9573364257812	323.6717529296875	875.3709106445312	-751.27392578125	262.2308959960938	858.8948364257812	-695.5492553710938	246.5301513671875	999.3878784179688	-675.3588256835938	349.1366271972656	691.9392700195312	-772.040771484375	267.8085632324219	781.3455810546875	-732.6836547851562	321.6336059570312	793.893798828125	-778.8199462890625	702.4126586914062	1444.323364257812	-597.0201416015625	764.377197265625	1377.250366210938	-582.39111328125	810.4962768554688	1116.78271484375	-551.4776000976562	718.6603393554688	1091.108764648438	-578.3056030273438	785.5702514648438	886.396240234375	-730.8557739257812	831.30419921875	860.313720703125	-662.1483154296875	822.9976196289062	1035.373779296875	-571.8916625976562	nan	nan	nan	790.613525390625	801.3032836914062	-776.83447265625	835.0891723632812	778.7631225585938	-714.0960083007812	476.5688781738281	1659.21533203125	-575.7715454101562	604.428466796875	1696.498046875	-745.7467651367188	478.1265563964844	1705.348876953125	-748.59375	613.1805419921875	1643.40087890625	-582.7164916992188	357.7420654296875	955.3698120117188	-611.569091796875	702.5098876953125	951.364501953125	-582.700927734375	683.4625854492188	973.4151611328125	-706.5770263671875	414.497802734375	969.0648193359375	-721.125732421875	408.2911682128906	499.9495239257812	-742.5588989257812	371.0978698730469	636.2279663085938	-695.7918090820312	376.7346801757812	47.19392395019531	-600.338134765625	376.638427734375	260.5198669433594	-665.799072265625	372.3526916503906	39.24281692504883	-805.7803344726562	428.9074401855469	38.20431518554688	-758.5044555664062	332.925537109375	38.04253768920898	-700.4349365234375	454.1238098144531	44.930908203125	-549.4659423828125	671.3218383789062	509.6537475585938	-678.572265625	705.0330200195312	779.8600463867188	-673.606689453125	659.4249267578125	37.0410270690918	-565.4830322265625	674.3141479492188	386.0857543945312	-656.8277587890625	626.5608520507812	32.98291778564453	-785.271484375	586.8485717773438	38.72061920166016	-724.142333984375	678.556396484375	41.04196548461914	-689.5258178710938	601.9662475585938	38.66209411621094	-522.048828125	
